<svg width="80" height="80" viewBox="0 0 80 80" fill="none" xmlns="http://www.w3.org/2000/svg">
<path d="M25.5402 30.0358H37.9272V37.4418H14.4165L27.9234 7.40608H15.7834V0H39.2941L25.5402 30.0358ZM58.4308 0C58.4308 0 58.4308 21.6239 58.4308 25.8298C58.4308 30.0358 54.7629 30.9958 54.0871 30.9958C54.0871 31.0042 52.9327 31.0042 52.9327 30.9958C52.2569 30.9958 48.5891 30.0358 48.5891 25.8298C48.5891 21.6239 48.5891 0 48.5891 0H41.2078C41.2078 0 41.2078 16.5797 41.2078 26.3633C41.2078 34.3397 48.9671 38.3151 52.8089 38.398L54.2626 38.3964C58.1216 38.2794 65.812 34.3044 65.812 26.3633C65.812 16.5797 65.812 0 65.812 0H58.4308V0ZM67.6187 41.602C67.6187 41.602 67.6187 63.2259 67.6187 67.4319C67.6187 71.6378 63.9509 72.5978 63.2751 72.5978C63.2751 72.6062 62.1207 72.6062 62.1207 72.5978C61.4449 72.5978 57.777 71.6378 57.777 67.4319C57.777 63.2259 57.777 41.602 57.777 41.602H50.3957C50.3957 41.602 50.3957 58.1818 50.3957 67.9653C50.3957 75.9418 58.1551 79.9171 61.9968 80L63.4506 79.9984C67.3096 79.8814 75 75.9064 75 67.9653C75 58.1818 75 41.602 75 41.602H67.6187ZM39.6891 71.6144V41.602H32.3989V79.0287H36.8332H39.6891H48.4009V71.6144H39.6891ZM31.3205 65.1003C31.3205 58.5171 27.8081 55.549 26.9464 54.6312C28.9512 46.9966 23.3469 41.602 18.1831 41.602C13.0193 41.602 5 41.602 5 41.602V79.0287C5 79.0287 14.5988 79.0287 18.1831 79.0287C24.6683 79.0287 31.3205 71.6835 31.3205 65.1003ZM22.3445 46.4176C23.8633 46.9816 23.0736 48.5052 22.1927 49.4806C21.3119 50.456 19.1095 51.5988 18.9122 52.2234C18.7148 52.8481 19.1702 54.2198 19.0488 55.4999C18.9275 56.7799 18.3654 56.1553 18.1602 55.6981C17.955 55.2409 17.0592 54.2655 16.6642 53.8541C16.2693 53.4426 16.7251 52.4674 16.4517 52.696C16.1784 52.9246 16.0872 52.7874 14.5076 53.016C12.928 53.2446 11.9865 54.2809 11.546 54.9666C11.1055 55.6524 11.4853 56.216 11.1968 56.1856C10.9083 56.1552 10.9081 55.6218 10.8019 55.6067C10.6956 55.5915 10.4221 55.9267 10.1184 56.6885C9.81478 57.4503 9.93616 57.2219 10.3918 58.2277C10.8474 59.2334 10.6347 59.02 10.2702 58.9134C9.90573 58.8068 9.22228 58.182 8.79708 57.9593C8.37188 57.7366 7.41487 57.8771 6.85298 57.9382C6.29109 57.9993 6.10884 57.9382 6.45803 57.6182C6.80723 57.2982 8.56284 57.0322 9.14004 56.7122C9.71724 56.3922 10.3007 55.1647 10.1184 55.1341C9.93616 55.1036 8.99446 54.7684 9.70835 54.6618C10.4222 54.5552 10.9811 54.2995 11.6702 52.7619C12.8841 50.0533 14.6164 49.7106 14.2805 49.5872C14.0525 49.5035 13.8851 49.389 13.6419 48.7795C13.3988 48.17 12.5182 47.3318 11.8803 46.7989C11.2424 46.266 10.5892 45.9603 12.0472 45.7928C13.5052 45.6253 15.4645 46.9357 16.1784 47.5604C16.8922 48.185 16.9916 47.76 17.3934 47.4843C19.1704 46.2651 20.8258 45.8537 22.3445 46.4176ZM25.8187 72.2435C25.5681 73.8436 24.7366 74.0265 24.4405 73.9236C24.1443 73.8208 24.0243 73.3309 24.5316 73.1236C24.8391 72.9979 24.8391 72.575 24.6483 72.1142C24.4084 71.5348 23.5292 71.9578 22.709 72.1178C21.8889 72.2778 21.153 72.4173 21.2282 73.1921C21.3649 74.598 22.4812 73.7636 22.5496 74.0608C22.6179 74.3579 22.46 74.809 21.6855 74.809C20.9109 74.809 20.522 74.6208 20.3283 74.2436C19.9998 73.6038 20.7498 73.2836 17.9704 73.1921C14.5261 73.0789 10.8038 71.071 9.50702 69.6148C7.3086 67.1462 7.19469 65.1575 7.21748 64.1746C7.24026 63.1917 7.78702 62.1745 7.67311 63.1117C7.5592 64.0488 8.21295 65.6337 8.78158 67.2865C9.04001 68.0376 10.9277 69.7171 12.2829 68.5846C13.8889 67.2422 14.7111 67.4451 14.3921 67.2393C14.1693 67.0956 14.126 66.9992 14.1196 66.8151L14.1195 66.8147C14.0216 66.3043 14.0326 66.0402 13.4597 65.2223C13.1728 64.8126 12.7687 64.5073 12.5349 64.5333C12.4605 64.5426 12.4165 64.578 12.3881 64.6519C12.2798 64.9332 12.283 65.24 12.2859 65.5105C12.2877 65.6889 12.2895 65.8573 12.2601 66.0048C12.1903 66.355 12.0273 66.9294 11.5218 67.0149C11.0163 67.1004 11.0578 67.1342 11.0371 67.051C11.0126 66.9531 11.0932 66.8029 11.4335 66.6602C11.7738 66.5175 11.8393 66.2507 11.9027 65.9331C11.9246 65.823 11.923 65.6732 11.9214 65.5144C11.9183 65.2259 11.9146 64.8669 12.0481 64.5201C12.125 64.3203 12.2821 64.196 12.4905 64.1703C12.8875 64.1257 13.4458 64.4567 13.7911 64.9494C14.1389 65.446 14.4533 65.9264 14.66 66.2493C14.6872 66.2484 14.7143 66.2475 14.7406 66.2432C15.0191 66.1975 15.3961 66.929 15.8517 66.7918C16.3074 66.6547 18.5809 67.0833 20.0436 66.7233C21.251 66.4261 21.7561 66.3909 22.8229 65.0546C24.6569 62.7574 23.6269 61.4494 23.2989 60.6723C23.0321 60.0403 23.1075 59.8915 23.5246 59.9985C23.6203 60.0231 24.3803 60.3119 24.7622 60.6648C25.6504 61.4848 26.7642 63.0981 26.7642 65.1918C26.7642 68.1862 25.1467 69.672 25.1467 69.672C25.6479 70.0606 26.0693 70.6435 25.8187 72.2435Z" fill="#0F2644"/>
</svg>
